# xmcd
#
# Track frame offsets: 
#        150
#        22375
#        43077
#        61525
#        92765
#        116670
#        140622
#        165600
#        186587
#        213340
#        230280
#        254385
#        273325
#
# Disc length: 3945 seconds
#
# Revision: 2
# Processed by: cddbd v1.5.2PL0 Copyright (c) Steve Scherf et al.
# Submitted via: ExactAudioCopy v0.99pb4
#
DISCID=bd0f670d
DTITLE=The Stevie Zee Band - Wail
DYEAR=1995
DGENRE=Blues
TTITLE0=The Light
TTITLE1=Guitar Man
TTITLE2=Burned
TTITLE3=Wail
TTITLE4=Mesmerise
TTITLE5=My Little Girl
TTITLE6=Dark Eyes
TTITLE7=Hi-Tail Woman
TTITLE8=Hard
TTITLE9=Rollercoaster
TTITLE10=Cold Turkey
TTITLE11=Body Count
TTITLE12=Crazy Train
EXTD=
EXTT0=
EXTT1=
EXTT2=
EXTT3=
EXTT4=
EXTT5=
EXTT6=
EXTT7=
EXTT8=
EXTT9=
EXTT10=
EXTT11=
EXTT12=
PLAYORDER=
